<svg width="12" height="7" viewBox="0 0 12 7" fill="none" xmlns="http://www.w3.org/2000/svg">
<path d="M5.99855 6.7073C6.18671 6.70758 6.36717 6.63323 6.50023 6.50033L11.8012 1.20086C11.9749 1.02096 12.0409 0.762552 11.9748 0.521263C11.9086 0.279966 11.7201 0.0913765 11.4788 0.0252653C11.2375 -0.0409698 10.9791 0.025123 10.7992 0.198901L6.00076 4.99661L1.20086 0.198901C1.02096 0.0251233 0.762553 -0.0409698 0.521263 0.0252653C0.279967 0.0913583 0.0913765 0.279952 0.0252653 0.521263C-0.0409698 0.762559 0.025123 1.02094 0.198901 1.20086L5.49472 6.50033C5.62833 6.63365 5.80966 6.70815 5.99838 6.7073H5.99855Z" fill="#7A7A7A"/>
</svg>
