<svg width="12" height="7" viewBox="0 0 12 7" fill="none" xmlns="http://www.w3.org/2000/svg">
<path d="M6.00145 -2.53199e-05C5.81329 -0.000310008 5.63283 0.0740432 5.49977 0.206944L0.198841 5.50641C0.0250636 5.68632 -0.0408868 5.94472 0.0252057 6.18601C0.0914412 6.42731 0.279892 6.6159 0.521203 6.68201C0.7625 6.74824 1.02088 6.68215 1.2008 6.50837L5.99924 1.71066L10.7991 6.50837C10.979 6.68215 11.2374 6.74825 11.4787 6.68201C11.72 6.61592 11.9086 6.42732 11.9747 6.18601C12.041 5.94472 11.9749 5.68633 11.8011 5.50641L6.50528 0.206944C6.37167 0.0736203 6.19034 -0.000878365 6.00162 -2.53199e-05L6.00145 -2.53199e-05Z" fill="#7A7A7A"/>
</svg>
