<?xml version="1.0" encoding="UTF-8"?>
<!DOCTYPE svg PUBLIC "-//W3C//DTD SVG 1.1//EN" "http://www.w3.org/Graphics/SVG/1.1/DTD/svg11.dtd">
<!-- Creator: CorelDRAW X7 -->
<svg xmlns="http://www.w3.org/2000/svg" xml:space="preserve" width="0.253811in" height="0.318512in" version="1.1" style="shape-rendering:geometricPrecision; text-rendering:geometricPrecision; image-rendering:optimizeQuality; fill-rule:evenodd; clip-rule:evenodd"
viewBox="0 0 254 319"
 xmlns:xlink="http://www.w3.org/1999/xlink">
 <defs>
  <style type="text/css">
   <![CDATA[
    .fil0 {fill:black}
   ]]>
  </style>
 </defs>
 <g id="Layer_x0020_1">
  <metadata id="CorelCorpID_0Corel-Layer"/>
  <path class="fil0" d="M43 186c7,-18 12,-38 16,-58 10,-53 -6,-152 93,-123 10,3 11,8 11,12 1,3 4,3 7,4 39,15 19,71 25,107 4,20 9,40 16,58 17,2 36,0 37,23l6 75c3,46 -257,46 -254,0l5 -75c2,-23 21,-21 38,-23zm112 -135c18,0 23,41 28,41l0 2c6,2 6,25 -8,25 -21,45 -76,45 -97,0 -13,0 -14,-23 -7,-25l-1 -1c58,0 71,-42 85,-42zm10 121l-18 -17c-13,5 -27,5 -40,0l-18 17c20,27 56,27 76,0z"/>
 </g>
</svg>
